# xmcd
# Track frame offsets:
# 150
# 17090
# 37275
# 52885
# 69600
# 89122
# 107845
# 125967
# 140542
# 157495
# 175407
# 191620
# 210992
#
# Disc length: 3070 seconds
# Revision: 1
# Processed by: cddbd v1.4PL0 Copyright (c) Steve Scherf et al.
# Submitted via: VisiTrax 2.9.5.181 - For more info visit www.synapsa.com
#
DISCID=cd0bfc0d
DTITLE=Foster, Radney - Another Way To Go
DYEAR=2002
DGENRE=Alt Country
TTITLE0=Real Fine Place To Start
TTITLE1=Everyday Angel
TTITLE2=Again
TTITLE3=Sure Feels Right
TTITLE4=Disappointing You
TTITLE5=I Got What You Need
TTITLE6=Tired Of Pretending
TTITLE7=What It Is That You Do
TTITLE8=Scary Old World
TTITLE9=Love Had Something To Say About It
TTITLE10=What Are We Doing Here Tonight
TTITLE11=Just Sit Still
TTITLE12=Another Way To Go
EXTD=
EXTT0=
EXTT1=
EXTT2=
EXTT3=
EXTT4=
EXTT5=
EXTT6=
EXTT7=
EXTT8=w/Cheryl Wright
EXTT9=
EXTT10=
EXTT11=
EXTT12=
PLAYORDER=
